<svg
  width="20"
  height="23"
  viewBox="0 0 20 23"
  fill="none"
  xmlns="http://www.w3.org/2000/svg"
>
  <path
    d="M5.50562 22.5C4.1573 22.5 2.92135 21.95 1.91011 21.07C0.898876 20.19 0.449438 18.87 0.449438 17.55C0.449438 16.23 1.01124 15.02 1.91011 14.03L10.8989 5.23C12.0225 4.13 14.0449 4.13 15.2809 5.23C16.5169 6.44 16.5169 8.31 15.2809 9.52L7.52809 17.11C7.07865 17.55 6.40449 17.55 5.95506 17.11C5.50562 16.67 5.50562 16.01 5.95506 15.57L13.7079 7.98C14.0449 7.65 14.0449 7.1 13.7079 6.88C13.3708 6.55 12.809 6.55 12.4719 6.88L3.48315 15.68C2.92135 16.23 2.69663 16.89 2.69663 17.66C2.69663 18.43 3.03371 19.09 3.48315 19.64C4.49438 20.63 6.4045 20.63 7.41573 19.64L16.4045 10.84C17.3034 9.96 17.7528 8.75 17.7528 7.54C17.7528 6.33 17.3034 5.12 16.4045 4.24C15.5056 3.36 14.382 2.7 13.0337 2.7C11.7978 2.7 10.5618 3.14 9.66292 4.02L1.91011 11.61C1.46067 12.05 0.786517 12.05 0.337079 11.61C-0.11236 11.17 -0.11236 10.51 0.337079 10.07L8.08989 2.48C9.4382 1.27 11.236 0.5 13.0337 0.5C14.9438 0.5 16.6292 1.16 17.9775 2.48C19.3258 3.8 20 5.56 20 7.32C20 9.19 19.2135 10.84 17.9775 12.16L8.98876 20.96C8.20225 21.95 6.85393 22.5 5.50562 22.5Z"
    fill="#999999"
  />
</svg>
